<?xml version="1.0" standalone="no"?>
<!DOCTYPE svg PUBLIC "-//W3C//DTD SVG 20010904//EN"
 "http://www.w3.org/TR/2001/REC-SVG-20010904/DTD/svg10.dtd">
<svg version="1.0" xmlns="http://www.w3.org/2000/svg"
 width="256.000000pt" height="256.000000pt" viewBox="0 0 256.000000 256.000000"
 preserveAspectRatio="xMidYMid meet">
<metadata>
Created by potrace 1.11, written by Peter Selinger 2001-2013
</metadata>
<g transform="translate(0.000000,256.000000) scale(0.100000,-0.100000)"
fill="#000000" stroke="none">
<path d="M1218 2297 c-15 -17 -26 -35 -25 -38 1 -3 -6 -13 -16 -23 -9 -10 -15
-22 -11 -27 3 -5 -2 -12 -10 -15 -9 -3 -16 -15 -16 -25 0 -10 -5 -19 -12 -19
-6 0 -8 -3 -5 -6 3 -4 1 -16 -5 -28 -7 -11 -13 -23 -14 -26 0 -3 -10 -25 -22
-50 -59 -128 -75 -166 -74 -172 1 -3 -5 -12 -13 -18 -8 -7 -15 -18 -15 -24 0
-15 -64 -104 -87 -122 -10 -7 -27 -14 -38 -14 -11 0 -31 -7 -43 -16 -12 -8
-27 -12 -32 -9 -6 4 -16 2 -23 -3 -7 -5 -28 -8 -47 -7 -19 1 -41 -2 -47 -7 -8
-6 -13 -7 -13 -1 0 11 -98 5 -122 -8 -12 -7 -18 -6 -18 1 0 7 -5 8 -12 3 -7
-4 -26 -9 -43 -10 -16 -2 -46 -4 -66 -6 -20 -2 -53 -13 -73 -25 -36 -21 -66
-31 -36 -12 13 9 13 10 0 10 -16 0 -71 -39 -56 -40 5 0 3 -6 -3 -13 -8 -11 -6
-18 9 -32 11 -10 20 -23 20 -28 0 -6 16 -25 35 -43 18 -19 32 -34 29 -34 -3 0
22 -23 55 -51 34 -28 61 -56 61 -62 0 -5 3 -8 6 -4 10 9 212 -203 235 -247 19
-36 21 -51 15 -121 -7 -83 -13 -130 -16 -130 -2 0 -4 -9 -6 -20 -1 -11 -5 -31
-8 -45 -9 -39 -15 -72 -21 -109 -3 -19 -8 -37 -10 -41 -17 -27 -24 -217 -10
-258 7 -21 5 -22 -20 -18 -16 3 -38 -2 -54 -12 -25 -16 -25 -16 -12 1 18 23 5
21 -32 -5 l-32 -22 20 24 20 24 -29 -18 c-16 -10 -26 -14 -22 -8 3 6 -13 8
-42 5 -26 -2 -73 -5 -104 -7 -31 -1 -64 -9 -73 -16 -8 -7 -18 -10 -22 -6 -3 3
-1 6 5 6 7 0 12 5 12 11 0 5 -5 7 -10 4 -6 -4 -27 -9 -48 -11 -39 -5 -79 -35
-79 -59 0 -8 4 -12 8 -10 4 3 10 -2 13 -11 4 -9 9 -14 13 -10 3 3 14 -1 24
-10 10 -9 27 -14 39 -11 11 3 18 1 14 -4 -8 -13 10 -11 24 3 9 9 15 9 24 -1
11 -10 9 -11 -7 -6 -18 6 -18 5 -3 -5 13 -8 23 -8 39 1 12 6 19 7 15 1 -9 -15
20 -22 34 -9 10 9 11 9 5 -2 -5 -9 -3 -12 6 -9 8 3 13 11 11 17 -1 7 2 10 8 6
6 -3 8 -10 5 -15 -3 -5 36 -8 87 -8 76 1 98 5 123 22 17 11 25 14 18 5 -16
-20 -4 -34 32 -34 17 1 41 -2 55 -5 15 -4 35 -1 50 9 23 14 24 14 12 -1 -11
-14 -10 -16 11 -14 13 2 30 7 37 11 9 6 11 4 5 -5 -5 -8 -3 -11 6 -8 8 3 14
10 14 16 0 5 3 14 7 18 4 3 6 -3 3 -15 -5 -25 -2 -26 33 -5 20 12 22 12 9 1
-17 -14 -16 -15 3 -20 11 -3 22 -1 25 4 3 4 16 5 28 1 28 -9 135 -8 162 2 16
6 17 6 5 -3 -11 -8 -8 -9 15 -6 17 2 34 4 38 4 5 1 6 5 3 10 -3 5 2 8 12 7 9
0 16 4 15 9 -1 6 7 11 18 11 17 0 16 -3 -7 -21 l-26 -21 79 1 c43 1 89 7 103
14 22 11 23 10 8 -2 -10 -8 -18 -17 -18 -20 0 -8 43 4 59 17 11 8 13 8 7 -2
-4 -6 -3 -12 1 -12 5 0 15 6 22 12 11 10 13 10 7 1 -10 -18 25 -17 50 2 10 8
23 15 28 15 6 0 1 -7 -10 -15 -18 -14 -17 -15 16 -12 19 2 51 11 70 21 l35 17
-23 -20 -23 -20 35 3 c19 2 39 7 45 10 6 4 11 4 11 -1 0 -4 19 -7 42 -5 24 1
61 2 83 3 22 0 51 7 65 16 23 15 24 15 12 0 -13 -15 -10 -16 27 -12 22 2 53
12 68 22 15 10 24 13 20 6 -11 -18 10 -25 34 -12 14 7 19 7 15 0 -4 -6 6 -8
31 -5 21 3 49 5 62 5 13 -1 40 8 60 20 34 20 35 20 18 1 -17 -19 -17 -19 10
-14 15 2 34 10 42 16 12 8 13 8 7 -2 -6 -10 -1 -11 21 -7 15 4 35 7 43 7 8 0
21 5 28 11 8 6 12 6 12 -2 0 -19 77 26 83 49 6 24 -33 56 -58 46 -8 -3 -14 0
-12 7 1 7 -5 12 -13 12 -8 0 -19 3 -25 6 -23 13 -108 8 -133 -7 -20 -12 -22
-12 -9 -1 9 8 17 17 17 21 0 11 -56 6 -69 -6 -11 -10 -12 -10 -7 -1 5 9 -3 12
-29 11 -19 -1 -38 2 -42 5 -3 4 -12 2 -20 -4 -9 -8 -13 -8 -13 0 0 7 -8 8 -27
0 -14 -5 -29 -6 -32 -2 -3 5 -14 9 -23 8 -10 0 -18 4 -17 9 0 5 -5 13 -13 17
-10 7 -9 9 5 9 14 0 17 9 18 48 1 26 0 52 -1 57 -1 6 -4 24 -5 40 -2 17 -4 30
-5 30 -2 0 -10 34 -16 74 -2 19 -6 37 -9 41 -5 8 -16 63 -20 100 -2 14 -4 25
-5 25 -1 0 -3 7 -5 15 -2 8 -6 29 -10 45 -14 68 -17 183 -5 220 12 38 187 225
210 225 6 0 9 4 6 9 -3 5 6 17 21 26 15 10 52 42 82 72 30 29 57 53 61 53 3 0
19 20 34 45 16 25 33 45 38 45 5 0 7 4 3 9 -3 5 -1 12 5 16 27 17 -48 72 -89
66 -7 -1 -10 2 -6 9 6 9 2 9 -15 0 -18 -10 -21 -9 -15 1 6 9 3 11 -8 6 -10 -3
-17 -3 -17 2 0 13 -48 19 -59 8 -8 -8 -11 -8 -11 -1 0 6 -6 11 -12 12 -7 0
-38 3 -68 6 -101 11 -184 17 -247 19 -33 1 -59 5 -57 8 2 4 -9 9 -25 12 -42 9
-103 74 -139 148 -18 37 -32 72 -32 78 0 6 -5 11 -11 11 -5 0 -8 4 -5 8 3 4
-18 55 -46 113 -28 57 -53 110 -54 117 -1 8 -10 22 -18 31 -9 10 -16 23 -16
29 0 7 -4 12 -10 12 -5 0 -10 6 -10 13 -1 21 -56 78 -81 82 -18 3 -31 -4 -51
-28z m136 -155 c2 -4 -4 -8 -14 -8 -10 0 -16 4 -14 8 3 4 9 8 14 8 5 0 11 -4
14 -8z m26 -56 c0 -2 -8 -10 -17 -17 -16 -13 -17 -12 -4 4 13 16 21 21 21 13z
m75 -154 c-3 -3 -11 0 -18 7 -9 10 -8 11 6 5 10 -3 15 -9 12 -12z m-375 -46
c0 -3 -4 -8 -10 -11 -5 -3 -10 -1 -10 4 0 6 5 11 10 11 6 0 10 -2 10 -4z m246
-31 c-1 -8 -5 -17 -8 -21 -5 -4 -4 16 1 34 3 9 9 -1 7 -13z m54 -70 c0 -2 -10
-9 -22 -15 -22 -11 -22 -10 -4 4 21 17 26 19 26 11z m-223 -19 c-10 -8 -17
-16 -15 -19 2 -3 0 -8 -4 -12 -3 -4 -5 1 -4 10 1 9 9 21 17 26 22 14 26 10 6
-5z m-37 -26 c0 -5 -5 -10 -11 -10 -5 0 -7 5 -4 10 3 6 8 10 11 10 2 0 4 -4 4
-10z m287 3 c-4 -3 -1 -13 6 -22 11 -14 10 -14 -5 -2 -16 12 -16 31 -1 31 4 0
3 -3 0 -7z m193 -63 c0 -5 -5 -10 -11 -10 -5 0 -7 5 -4 10 3 6 8 10 11 10 2 0
4 -4 4 -10z m-754 -25 c-1 -8 -5 -17 -8 -21 -5 -4 -4 16 1 34 3 9 9 -1 7 -13z
m580 0 c-24 -18 -31 -49 -10 -41 10 4 12 2 8 -6 -5 -8 -2 -9 9 -5 24 9 21 0
-4 -14 -17 -9 -20 -8 -14 2 6 8 4 11 -7 7 -22 -9 -17 41 7 58 10 8 21 14 24
14 3 0 -3 -7 -13 -15z m-609 -20 c0 -8 -4 -12 -9 -9 -5 3 -6 10 -3 15 9 13 12
11 12 -6z m-131 -24 c0 -11 -4 -17 -8 -15 -4 3 -18 0 -30 -6 -17 -9 -15 -5 7
14 17 14 30 25 30 26 1 0 1 -9 1 -19z m44 10 c0 -5 -7 -12 -16 -15 -14 -5 -15
-4 -4 9 14 17 20 19 20 6z m-130 -15 c0 -8 -7 -16 -15 -20 -12 -4 -13 -2 -2
14 14 24 17 25 17 6z m1355 5 c3 -5 2 -12 -3 -15 -5 -3 -9 1 -9 9 0 17 3 19
12 6z m-1465 -16 c0 -12 -19 -12 -23 0 -4 9 -1 12 9 8 7 -3 14 -7 14 -8z
m1374 7 c2 -4 -4 -8 -14 -8 -10 0 -16 4 -14 8 3 4 9 8 14 8 5 0 11 -4 14 -8z
m-1414 -6 c0 -2 -7 -9 -15 -16 -13 -11 -14 -10 -9 4 5 14 24 23 24 12z m-85
-16 c-3 -5 -12 -10 -18 -10 -7 0 -6 4 3 10 19 12 23 12 15 0z m45 6 c0 -2 -7
-7 -16 -10 -8 -3 -12 -2 -9 4 6 10 25 14 25 6z m1099 0 c-12 -10 -103 -58 -97
-51 12 12 82 54 92 55 5 0 7 -2 5 -4z m-1195 -21 c-10 -8 -23 -15 -28 -15 -6
0 -1 7 10 15 10 8 23 15 28 15 6 0 1 -7 -10 -15z m1174 -17 c-2 -7 4 -13 12
-13 8 0 14 5 13 11 -1 6 5 11 12 11 21 0 -1 -25 -39 -43 -26 -13 -28 -13 -13
0 12 9 14 16 7 21 -5 3 -8 11 -5 16 9 13 15 11 13 -3z m-562 -13 c-1 -8 -5
-17 -8 -21 -5 -4 -4 16 1 34 3 9 9 -1 7 -13z m59 -1 c-9 -7 -24 -10 -32 -7
-18 7 -2 19 27 19 19 0 20 -1 5 -12z m-225 2 c0 -2 -7 -7 -16 -10 -8 -3 -12
-2 -9 4 6 10 25 14 25 6z m138 -10 c-2 -1 -12 -8 -23 -16 -18 -14 -19 -13 -8
1 7 9 10 19 6 23 -4 4 1 4 10 0 10 -3 17 -7 15 -8z m692 -1 c-15 -18 0 -20 20
-2 12 10 12 9 2 -4 -6 -9 -8 -19 -4 -24 4 -4 -3 -2 -16 4 -19 10 -21 15 -11
27 6 8 14 14 16 14 3 0 0 -7 -7 -15z m140 11 c0 -2 -7 -7 -16 -10 -8 -3 -12
-2 -9 4 6 10 25 14 25 6z m-887 -24 c-10 -7 -17 -18 -15 -23 1 -6 -2 -8 -8 -4
-8 5 -8 11 -1 19 6 7 9 15 6 17 -2 3 5 5 16 5 19 0 20 -1 2 -14z m901 3 c-4
-9 -16 -21 -28 -27 -19 -10 -18 -8 4 15 29 31 31 32 24 12z m76 10 c0 -2 -10
-9 -22 -15 -22 -11 -22 -10 -4 4 21 17 26 19 26 11z m-1104 -14 c-7 -10 -76
-52 -76 -46 0 4 72 55 78 55 2 0 1 -4 -2 -9z m-391 -11 c-3 -5 -12 -10 -18
-10 -7 0 -6 4 3 10 19 12 23 12 15 0z m1240 1 c3 -5 2 -12 -3 -15 -5 -3 -9 1
-9 9 0 17 3 19 12 6z m301 -3 c4 -7 4 -10 -1 -6 -4 4 -17 2 -29 -4 -19 -10
-20 -10 -7 5 16 20 27 21 37 5z m-60 -13 c-1 -8 -5 -17 -8 -21 -5 -4 -4 16 1
34 3 9 9 -1 7 -13z m169 5 c-3 -5 -12 -10 -18 -10 -7 0 -6 4 3 10 19 12 23 12
15 0z m35 -16 c-8 -8 -23 -20 -34 -26 -14 -6 -11 -1 8 16 32 29 45 34 26 10z
m-255 -14 c-3 -5 -12 -10 -18 -10 -7 0 -6 4 3 10 19 12 23 12 15 0z m185 -11
c-17 -15 -19 -19 -7 -15 11 3 16 2 12 -5 -4 -5 -16 -7 -27 -3 -13 4 -18 2 -14
-4 10 -16 -21 -35 -40 -24 -15 8 -15 9 0 15 11 5 15 3 10 -4 -4 -7 -1 -10 7
-7 8 3 13 11 11 17 -1 6 13 20 30 31 42 26 50 25 18 -1z m-1555 -9 c-3 -5 -12
-10 -18 -10 -7 0 -6 4 3 10 19 12 23 12 15 0z m195 -4 c0 -2 -8 -10 -17 -17
-16 -13 -17 -12 -4 4 13 16 21 21 21 13z m1387 -13 c-4 -3 -1 -13 6 -22 11
-14 10 -14 -5 -2 -16 12 -16 31 -1 31 4 0 3 -3 0 -7z m-1350 -48 c0 -8 -4 -12
-9 -9 -5 3 -6 10 -3 15 9 13 12 11 12 -6z m1189 -10 c-1 -8 -5 -17 -8 -21 -5
-4 -4 16 1 34 3 9 9 -1 7 -13z m-1362 -3 c3 -5 -1 -9 -9 -9 -8 0 -12 4 -9 9 3
4 7 8 9 8 2 0 6 -4 9 -8z m1486 3 c0 -2 -10 -9 -22 -15 -22 -11 -22 -10 -4 4
21 17 26 19 26 11z m-1270 -22 c0 -2 -8 -3 -17 -1 -13 2 -17 -3 -15 -17 2 -16
1 -17 -7 -5 -12 18 5 41 25 33 8 -3 14 -7 14 -10z m65 -2 c3 -5 2 -12 -3 -15
-5 -3 -9 1 -9 9 0 17 3 19 12 6z m-238 -16 c0 -8 -4 -12 -9 -9 -5 3 -6 10 -3
15 9 13 12 11 12 -6z m210 2 c0 -7 -9 -13 -19 -13 -18 0 -18 1 -2 13 10 7 18
13 19 13 1 0 2 -6 2 -13z m149 -12 c-1 -8 -5 -17 -8 -21 -5 -4 -4 16 1 34 3 9
9 -1 7 -13z m1004 1 c0 -2 -7 -7 -16 -10 -8 -3 -12 -2 -9 4 6 10 25 14 25 6z
m-1030 -31 c0 -12 -19 -12 -23 0 -4 9 -1 12 9 8 7 -3 14 -7 14 -8z m-43 -2
c-4 -3 1 -11 10 -18 13 -9 13 -14 3 -20 -9 -6 -11 -4 -5 5 5 8 3 11 -5 8 -7
-2 -14 -12 -16 -22 -2 -13 2 -16 14 -11 9 3 13 2 8 -2 -4 -4 -19 -8 -33 -8
-19 -1 -22 1 -11 10 17 13 21 35 6 35 -6 0 -3 7 8 15 20 15 32 20 21 8z m58
-22 c3 -6 -5 -15 -17 -21 -21 -10 -21 -10 -6 3 10 8 15 17 11 20 -3 4 -4 7 0
7 3 0 8 -4 12 -9z m-245 -5 c0 -2 -8 -10 -17 -17 -16 -13 -17 -12 -4 4 13 16
21 21 21 13z m330 -10 c0 -2 -7 -7 -16 -10 -8 -3 -12 -2 -9 4 6 10 25 14 25 6z
m-44 -31 c-3 -23 -12 -26 -13 -5 -1 11 2 20 7 20 4 0 7 -7 6 -15z m909 -5 c-3
-5 -12 -10 -18 -10 -7 0 -6 4 3 10 19 12 23 12 15 0z m-944 -7 c-10 -4 -10 -7
-1 -13 8 -5 7 -9 -5 -13 -11 -5 -14 -3 -9 5 5 8 1 9 -12 5 -18 -7 -18 -7 0 8
11 8 25 15 30 14 6 0 5 -3 -3 -6z m1096 1 c-3 -3 -12 -4 -19 -1 -8 3 -5 6 6 6
11 1 17 -2 13 -5z m-1080 -57 c0 -7 -8 -13 -18 -13 -13 0 -15 3 -7 13 6 7 14
13 18 13 3 0 7 -6 7 -13z m90 -21 c0 -8 -6 -12 -15 -9 -11 5 -11 7 0 14 7 5
13 9 14 9 0 0 1 -6 1 -14z m758 4 c-3 -5 -11 -10 -16 -10 -6 0 -7 5 -4 10 3 6
11 10 16 10 6 0 7 -4 4 -10z m-801 -22 c-5 -7 -1 -9 9 -5 24 9 21 0 -4 -14
-15 -8 -19 -8 -15 0 4 6 1 11 -6 12 -10 0 -10 2 0 6 6 2 9 10 6 15 -4 7 -2 8
5 4 6 -4 8 -12 5 -18z m81 -27 c3 -5 2 -12 -3 -15 -5 -3 -9 1 -9 9 0 17 3 19
12 6z m705 -5 c0 -2 -8 -10 -17 -17 -16 -13 -17 -12 -4 4 13 16 21 21 21 13z
m-43 -21 c0 -8 -4 -12 -9 -9 -5 3 -6 10 -3 15 9 13 12 11 12 -6z m-723 -22
c-10 -8 -28 -19 -39 -24 l-20 -10 20 16 c11 9 19 20 18 25 -2 5 5 6 14 3 12
-5 14 -3 8 7 -6 9 -4 11 5 5 10 -6 9 -11 -6 -22z m739 -15 c-4 -7 -8 -16 -8
-20 0 -3 -4 -10 -9 -15 -5 -5 -6 -2 -1 6 5 9 3 12 -6 9 -8 -3 -13 -11 -11 -17
1 -7 -2 -9 -9 -5 -9 5 -3 15 17 31 33 26 39 28 27 11z m-913 -12 c0 -2 -7 -7
-16 -10 -8 -3 -12 -2 -9 4 6 10 25 14 25 6z m215 -5 c3 -5 2 -12 -3 -15 -5 -3
-9 1 -9 9 0 17 3 19 12 6z m-55 -26 c0 -2 -10 -9 -22 -15 -22 -11 -22 -10 -4
4 21 17 26 19 26 11z m116 -80 c-1 -8 -5 -17 -8 -21 -5 -4 -4 16 1 34 3 9 9
-1 7 -13z m-62 -7 c-5 -8 -2 -9 9 -5 23 9 21 0 -2 -13 -16 -8 -19 -7 -16 8 5
23 4 22 11 22 3 0 2 -5 -2 -12z m-24 -12 c0 -7 -91 -56 -104 -56 -6 0 14 13
44 30 60 32 60 32 60 26z m750 -10 c0 -2 -8 -10 -17 -17 -16 -13 -17 -12 -4 4
13 16 21 21 21 13z m-720 -20 c0 -2 -7 -7 -16 -10 -8 -3 -12 -2 -9 4 6 10 25
14 25 6z m-63 -20 c0 -8 -6 -12 -15 -8 -10 3 -13 1 -8 -6 3 -6 2 -13 -3 -16
-5 -4 -8 1 -7 10 2 12 21 32 32 34 0 0 1 -6 1 -14z m439 -1 c-1 -8 -6 -18 -11
-22 -4 -4 -5 -2 -1 5 4 7 2 12 -6 12 -9 0 -9 3 2 10 19 12 19 13 16 -5z m-80
-4 c-4 -5 0 -11 6 -13 8 -3 4 -10 -11 -17 -19 -11 -22 -11 -15 1 5 7 9 16 10
21 3 15 4 17 10 17 3 0 3 -4 0 -9z m-409 -26 c0 -8 -4 -12 -9 -9 -4 3 -8 9 -8
15 0 5 4 9 8 9 5 0 9 -7 9 -15z m383 10 c0 -2 -10 -9 -22 -15 -22 -11 -22 -10
-4 4 21 17 26 19 26 11z m-340 -36 c-8 -5 -28 -17 -45 -25 -22 -11 -26 -11
-13 -1 10 8 15 17 11 21 -4 4 0 4 9 1 9 -4 19 -2 23 4 3 6 12 11 18 11 7 0 6
-4 -3 -11z m276 -4 c-11 -8 -25 -15 -30 -15 -6 1 0 7 14 15 32 19 40 18 16 0z
m148 7 c2 -4 -4 -8 -14 -8 -10 0 -16 4 -14 8 3 4 9 8 14 8 5 0 11 -4 14 -8z
m-199 -32 c-3 -6 -21 -17 -38 -26 -36 -19 -31 -9 10 17 34 21 36 22 28 9z
m180 1 c3 -5 2 -12 -3 -15 -5 -3 -9 1 -9 9 0 17 3 19 12 6z m135 -6 c0 -2 -6
-8 -13 -14 -10 -8 -14 -7 -14 2 0 8 6 14 14 14 7 0 13 -1 13 -2z m34 -3 c3 -5
-1 -9 -9 -9 -8 0 -12 4 -9 9 3 4 7 8 9 8 2 0 6 -4 9 -8z m-484 -47 c0 -2 -10
-9 -22 -15 -22 -11 -22 -10 -4 4 21 17 26 19 26 11z m537 -9 c0 -8 -6 -12 -15
-9 -11 5 -11 7 0 14 7 5 13 9 14 9 0 0 1 -6 1 -14z m43 0 c0 -2 -8 -10 -17
-17 -16 -13 -17 -12 -4 4 13 16 21 21 21 13z m-250 -9 c0 -2 -10 -12 -22 -23
l-23 -19 19 23 c18 21 26 27 26 19z m425 -7 c-3 -5 -12 -10 -18 -10 -7 0 -6 4
3 10 19 12 23 12 15 0z m-520 -19 c-9 -8 -68 -43 -425 -249 -52 -30 -113 -66
-135 -79 l-40 -24 28 23 c15 13 52 37 83 53 55 29 85 55 48 42 -18 -7 -18 -6
1 9 11 8 19 20 17 25 -1 6 2 8 8 4 8 -5 136 62 294 156 22 13 36 18 32 11 -10
-16 9 -15 26 1 11 11 55 34 68 36 2 1 0 -3 -5 -8z m360 -9 c-3 -3 -11 0 -18 7
-9 10 -8 11 6 5 10 -3 15 -9 12 -12z m-695 -9 c0 -5 -22 -20 -49 -36 -38 -21
-51 -24 -57 -15 -4 7 -4 10 0 6 4 -3 29 7 54 23 50 32 52 32 52 22z m570 -38
c0 -2 -6 -7 -12 -11 -7 -4 -10 -4 -6 1 4 4 0 14 -10 22 -15 13 -15 13 6 3 12
-6 22 -13 22 -15z m-126 4 c-4 -7 44 -24 58 -21 3 1 12 -5 18 -13 7 -8 16 -15
21 -15 5 0 28 -12 52 -27 23 -15 45 -26 50 -25 4 1 7 -3 7 -8 0 -6 7 -10 15
-10 8 0 15 -5 15 -11 0 -5 4 -8 9 -5 5 3 14 -1 21 -9 6 -7 19 -11 27 -8 11 4
14 2 9 -5 -4 -7 -2 -12 4 -12 17 0 98 -39 105 -51 4 -6 14 -8 22 -5 8 3 11 2
8 -3 -3 -5 5 -11 17 -13 12 -2 24 -10 26 -18 3 -8 1 -12 -3 -8 -4 4 -16 3 -26
-3 -13 -7 -19 -6 -19 1 0 7 -5 8 -12 3 -7 -4 -21 -6 -30 -5 -10 2 -26 -2 -38
-8 -12 -6 -20 -7 -20 -1 0 12 -41 11 -57 -2 -9 -6 -13 -6 -13 2 0 9 -5 9 -20
1 -11 -6 -17 -16 -14 -22 4 -7 3 -8 -4 -4 -6 4 -8 14 -5 23 5 13 2 13 -23 -3
-29 -18 -29 -18 -14 1 12 15 6 14 -34 -8 -30 -17 -53 -24 -59 -18 -5 5 -4 12
4 16 8 5 10 4 5 -3 -7 -12 6 -17 17 -6 22 23 -49 41 -80 21 -8 -5 -13 -4 -13
3 0 6 -5 8 -10 5 -6 -4 -8 -12 -4 -18 3 -7 0 -5 -8 3 -16 18 -64 18 -98 0 -21
-11 -23 -11 -13 1 10 12 -2 14 -76 13 -48 0 -94 -4 -101 -9 -8 -5 -11 -4 -7 2
8 12 -173 10 -193 -2 -9 -6 -11 -4 -5 4 6 10 3 11 -15 1 -12 -7 -20 -8 -16 -2
9 15 -82 6 -101 -10 -15 -12 -15 -11 -3 7 12 21 34 36 126 86 29 15 86 48 129
73 42 26 84 46 93 46 9 0 44 17 77 37 39 24 78 39 110 43 62 7 94 7 89 -1z
m156 -9 c0 -5 -5 -10 -11 -10 -5 0 -7 5 -4 10 3 6 8 10 11 10 2 0 4 -4 4 -10z
m380 6 c0 -2 -7 -7 -16 -10 -8 -3 -12 -2 -9 4 6 10 25 14 25 6z m-230 -69 c0
-2 -10 -12 -22 -23 l-23 -19 19 23 c18 21 26 27 26 19z m-935 -43 c-26 -20
-55 -36 -55 -30 0 5 63 46 70 46 3 -1 -4 -8 -15 -16z m1020 -33 c3 -5 2 -12
-3 -15 -5 -3 -9 1 -9 9 0 17 3 19 12 6z m-1049 -36 c-11 -8 -25 -15 -30 -15
-6 1 0 7 14 15 32 19 40 18 16 0z m44 -12 c0 -5 -18 -18 -40 -31 -50 -29 -52
-21 -3 13 42 28 43 28 43 18z m1125 -62 c3 -5 1 -12 -5 -16 -5 -3 -10 1 -10 9
0 18 6 21 15 7z m-430 -31 c-3 -5 -12 -10 -18 -10 -7 0 -6 4 3 10 19 12 23 12
15 0z m245 -5 c0 -2 -6 -5 -13 -8 -8 -3 -14 1 -14 8 0 7 6 11 14 8 7 -3 13 -6
13 -8z m240 1 c-7 -7 -13 -7 -20 0 -6 6 -3 10 10 10 13 0 16 -4 10 -10z
m-1615 -115 c3 -5 2 -12 -3 -15 -5 -3 -9 1 -9 9 0 17 3 19 12 6z m961 -46 c-1
-8 -5 -17 -8 -21 -5 -4 -4 16 1 34 3 9 9 -1 7 -13z m64 0 c0 -2 -10 -9 -22
-15 -22 -11 -22 -10 -4 4 21 17 26 19 26 11z m-95 -15 c-3 -5 -12 -10 -18 -10
-7 0 -6 4 3 10 19 12 23 12 15 0z"/>
<path d="M957 508 c-87 -50 -155 -93 -153 -95 5 -5 326 176 326 183 0 10 -24
-2 -173 -88z"/>
<path d="M1465 310 c-3 -5 -2 -10 4 -10 5 0 13 5 16 10 3 6 2 10 -4 10 -5 0
-13 -4 -16 -10z"/>
<path d="M560 129 c0 -5 5 -7 10 -4 6 3 10 8 10 11 0 2 -4 4 -10 4 -5 0 -10
-5 -10 -11z"/>
<path d="M1950 119 c0 -5 5 -7 10 -4 6 3 10 8 10 11 0 2 -4 4 -10 4 -5 0 -10
-5 -10 -11z"/>
</g>
</svg>
